<svg width="520" height="417" viewBox="0 0 520 417" xmlns="http://www.w3.org/2000/svg" xmlns:xlink="http://www.w3.org/1999/xlink">
<defs>
<linearGradient id="gradient_default" x1="145.34" y1="-162.82" x2="602.01" y2="293.85" gradientUnits="userSpaceOnUse">
<stop offset="0%" stop-color="#F4DA0B"></stop>
<stop offset="18%" stop-color="#EEB756"></stop>
<stop offset="40%" stop-color="#E26264"></stop>
<stop offset="60%" stop-color="#D26058"></stop>
<stop offset="78%" stop-color="#745BA2"></stop>
<stop offset="100%" stop-color="#5352A0"></stop>
</linearGradient>
<linearGradient id="gradient_41" x1="39.82" y1="-57.3" x2="496.49" y2="399.37" xlink:href="#gradient_default"></linearGradient>
<linearGradient id="gradient_42" x1="39.82" y1="-57.3" x2="496.49" y2="399.37" xlink:href="#gradient_default"></linearGradient>
<linearGradient id="gradient_43" x1="-61.13" y1="43.66" x2="395.53" y2="500.32" xlink:href="#gradient_default"></linearGradient>
<linearGradient id="gradient_44" x1="-64.18" y1="46.7" x2="392.49" y2="503.37" xlink:href="#gradient_default"></linearGradient>
</defs>
<path fill="url(#gradient_43)" d="M176.51,104.5c17.23,0,31.2-13.97,31.2-31.2V0.5h-104c-57.44,0-104,46.56-104,104V416.5h104v-104h72.8c17.23,0,31.2-13.97,31.2-31.2v-41.6c0-17.23-13.97-31.2-31.2-31.2h-72.8v-104h72.8Z"></path>
<path fill="url(#gradient_default)" d="M311.71,0.5h72.8c17.23,0,31.2,13.97,31.2,31.2v52c0,11.49-9.31,20.8-20.8,20.8h-62.4c-11.49,0-20.8-9.31-20.8-20.8V0.5Z"></path>
<path fill="url(#gradient_41)" d="M207.71,104.5h83.2c11.49,0,20.8,9.31,20.8,20.8v62.4c0,11.49-9.31,20.8-20.8,20.8h-83.2v-104Z"></path>
<rect fill="#CE3F3D" x="415.71" y="104.5" width="104" height="104" rx="52" ry="52"></rect>
<path fill="url(#gradient_42)" d="M332.51,208.5h62.4c11.49,0,20.8,9.31,20.8,20.8v52c0,17.23-13.97,31.2-31.2,31.2h-72.8v-83.2c0-11.49,9.31-20.8,20.8-20.8Z"></path>
<path fill="url(#gradient_44)" d="M207.71,312.5h83.2c11.49,0,20.8,9.31,20.8,20.8v83.2h-104v-104Z"></path>
</svg>
