<svg width="428" height="70" viewBox="0 0 428 70" fill="none" xmlns="http://www.w3.org/2000/svg">
<path d="M22.074 27.04H26.974V8.25199L28.466 7.23599C28.942 6.85199 29.174 6.47999 29.174 6.10399C29.174 5.13999 28.038 3.93999 24.502 1.15599L24.258 0.963989L21.734 3.87599H6.45798C6.00598 3.70799 5.862 3.67199 5.67 3.62399L5.55798 3.59999C5.33798 3.51999 5.12999 3.44399 4.93799 3.37999C4.62999 3.27599 4.36198 3.18398 4.15398 3.08398C3.58598 2.89598 3.234 2.79599 2.646 2.63599C2.314 2.54399 1.91 2.43199 1.35 2.27599L0.937988 2.15599V69.6H5.98599V25.432H22.07V27.048L22.074 27.04ZM22.074 16.476V21.336H5.98999V16.476H22.074ZM5.99399 12.384V7.95999H22.078V12.384H5.99399Z" fill="#FFF" style="fill:#FFF;fill-opacity:1;"/>
<path d="M59.062 1.22797L58.826 1.04398L56.226 3.87598H40.066C37.406 2.86798 36.274 2.49198 35.234 2.26798L34.842 2.18397V26.824H37.194C36.298 29.636 34.678 33.244 32.998 36.16H26.542C27.474 35.544 27.934 34.78 27.934 33.84C27.934 31.492 24.874 28.692 19.746 26.356L19.526 26.256L17.602 28.456L17.87 28.668C20.546 30.764 22.026 32.736 22.526 34.876C22.658 35.396 22.794 35.824 22.994 36.164H13.022L14.082 39.964H28.386V45.776H10.158L11.37 49.94H27.946C26.51 56.348 20.834 60.932 11.91 62.88L11.506 62.968L13.202 66.356L13.454 66.292C23.01 63.884 28.734 60.212 31.422 54.756C35.85 57.184 39.41 60.188 41.738 63.464C42.326 64.196 42.854 64.684 43.53 64.684C44.898 64.684 46.714 62.912 46.714 61.576C46.714 58.9 41.334 55.012 32.99 51.66L32.614 51.536C32.77 50.912 32.886 50.436 32.998 49.94H51.126L52.502 47.452L52.354 47.28C50.902 45.608 49.734 44.424 47.39 42.612L47.158 42.432L43.97 45.772H33.278V39.96H48.562L49.694 37.696L49.578 37.536C48.514 36.096 47.45 34.972 45.79 33.528L44.878 32.716L42.046 36.16H37.186C38.314 34.864 39.886 32.976 40.63 31.728C42.21 31.604 43.766 31.316 43.766 30.244C43.766 29.588 43.182 28.612 38.878 26.824H39.654V25.428H56.618V61.132C56.618 62.544 56.338 62.792 54.738 62.792C51.658 62.792 48.646 62.564 47.382 62.356L47.006 62.292V65.66L47.278 65.704C52.762 66.608 53.67 67.276 53.61 68.824L53.598 69.164L53.938 69.156C59.642 69.084 61.666 67.656 61.666 63.7V8.70397L63.298 7.67998C63.706 7.37598 63.938 6.98797 63.938 6.61597C63.938 5.51197 62.614 4.05197 59.046 1.22797H59.062ZM56.634 16.476V21.336H39.67V16.476H56.634ZM39.67 12.384V7.95997H56.634V12.384H39.67Z" fill="#FFF" style="fill:#FFF;fill-opacity:1;"/>
<path d="M84.5979 13.736C84.8259 14.636 85.2299 15.664 86.3779 15.664C88.1059 15.664 90.002 13.96 90.002 12.408C90.002 9.79599 86.9979 6.64399 81.7619 3.75999L81.5299 3.63599L79.45 6.07999L79.7219 6.28398C82.0019 7.99198 83.8699 10.848 84.5899 13.732L84.5979 13.736Z" fill="#FFF" style="fill:#FFF;fill-opacity:1;"/>
<path d="M103.486 15.768L103.686 15.584C105.818 13.684 108.254 10.992 109.802 8.84398C112.17 8.81198 112.674 8.09598 112.674 7.49598C112.674 6.34398 110.73 4.95998 106.898 3.38398L106.602 3.25998L106.478 3.55998C104.858 7.49598 102.966 11.04 101.158 13.544L100.978 13.796L103.486 15.768Z" fill="#FFF" style="fill:#FFF;fill-opacity:1;"/>
<path d="M147.354 64.004C140.55 60.348 134.85 55.356 130.414 49.152C134.874 41.26 137.766 31.544 138.786 21.044L138.818 20.804H145.126L146.326 18.316L146.206 18.16C144.426 15.788 143.558 14.84 141.03 12.536L140.774 12.304L137.358 16.712H121.586C122.486 13.6 123.214 10.792 124.146 6.22399C126.122 5.74799 127.422 5.212 127.422 4.196C127.422 3.344 126.522 2.21199 119.526 1.01599L119.194 0.959991L119.15 1.29199C117.118 16.532 114.006 26.88 109.07 34.84L108.914 35.096L111.83 37.216L112.022 36.964C114.074 34.276 115.558 31.796 117.15 28.344C118.774 36.072 121.362 43.2 124.666 49.016C119.874 56.436 113.11 62.96 106.546 66.496L106.21 66.676L108.438 69.532L108.67 69.42C115.75 66.06 122.798 60.2 127.602 53.688C131.698 59.524 136.526 64.292 142.758 68.66L143.006 68.832L143.194 68.596C144.798 66.612 145.854 65.592 147.382 64.556L147.822 64.256L147.354 64.004ZM133.422 20.804C132.626 29.036 130.534 37.132 127.358 44.28C123.766 37.916 121.134 30.304 119.73 22.208C119.858 21.904 119.91 21.74 120.042 21.34L120.218 20.804H133.426H133.422Z" fill="#FFF" style="fill:#FFF;fill-opacity:1;"/>
<path d="M108.93 61.716C108.93 60.252 107.054 58.696 102.474 56.38C104.542 53.224 106.246 49.26 107.678 44.284H113.574L114.866 41.784L114.718 41.62C112.81 39.492 111.714 38.464 109.83 37.028L109.594 36.852L106.626 40.12H94.254L94.534 39.404C96.566 39.008 97.554 38.436 97.554 37.652C97.554 36.572 95.842 35.664 91.45 34.412L91.17 34.332L90.854 35.144C90.13 37.012 89.686 38.16 88.806 40.124H77.13L78.43 44.288H86.886C85.322 47.484 83.258 51.028 80.894 54.572L80.694 54.872L85.014 57.156L86.49 54.864L87.01 54.116C90.498 55.36 93.406 56.616 95.47 57.768C91.202 62.256 85.674 64.884 78.106 66.028L77.65 66.096L79.526 69.488L79.75 69.452C88.654 67.996 95.362 64.896 99.702 60.244C101.594 61.588 102.966 62.788 104.258 64.208C104.898 64.928 105.342 65.196 105.894 65.196C107.142 65.196 108.93 63.152 108.93 61.72V61.716ZM88.774 51.108C90.094 48.872 91.506 46.208 92.382 44.28H102.098C101.078 48.024 99.694 51.38 97.982 54.268C95.306 53.184 92.67 52.276 88.77 51.104L88.774 51.108Z" fill="#FFF" style="fill:#FFF;fill-opacity:1;"/>
<path d="M79.338 35.368C84.498 32.68 89.542 28.824 93.614 24.464V34.528H98.442V25.128C101.538 26.788 104.102 28.972 105.718 31.324C106.314 32.068 106.762 32.472 107.438 32.472C108.718 32.472 110.55 30.512 110.55 29.144C110.55 26.644 106.814 24.332 98.442 21.644V20.296H112.47L113.834 17.82L113.71 17.652C112.234 15.656 111.406 14.752 109.482 13.052L109.226 12.824L106.47 16.348H98.438V5.80801C100.078 5.13601 101.154 4.49201 101.154 3.60801C101.154 2.33601 98.998 1.69201 93.95 1.45201L93.61 1.436V16.348H77.886L78.942 20.292H90.706C86.662 25.424 81.882 29.76 77.19 32.536L76.87 32.724L79.106 35.492L79.342 35.368H79.338Z" fill="#FFF" style="fill:#FFF;fill-opacity:1;"/>
<path d="M204.386 10.212C206.41 9.436 207.394 8.668 207.394 7.86C207.394 6.14 203.19 5.78 199.662 5.78H199.338V32.984H204.386V10.212Z" fill="#FFF" style="fill:#FFF;fill-opacity:1;"/>
<path d="M202.566 37.308V40.728L202.854 40.76C210.934 41.592 211.786 42.124 211.666 43.868L211.642 44.232L212.006 44.212C217.402 43.912 219.286 42.612 219.21 39.268V7.78798C221.21 6.98398 222.07 6.27598 222.07 5.44398C222.07 4.61198 221.27 3.40798 214.358 2.99598L214.018 2.97598V36.188C214.018 37.452 213.85 37.7 211.918 37.7C209.586 37.7 206.81 37.588 202.914 37.332L202.57 37.308H202.566Z" fill="#FFF" style="fill:#FFF;fill-opacity:1;"/>
<path d="M225.654 64.728C223.906 62.772 222.526 61.496 219.966 59.484L219.742 59.308L215.746 63.228H193.602V54.26H218.058L219.27 51.836L219.13 51.676C216.942 49.108 215.846 48.028 213.802 46.42L213.57 46.24L209.794 50.168H193.598V45.572C195.73 44.712 196.606 44.028 196.606 43.224C196.606 42.364 195.79 41.2 188.734 40.996L188.402 40.988V50.168H164.446L165.662 54.26H188.398V63.228H156.738L158.03 67.54H224.346L225.794 64.9L225.642 64.728H225.654Z" fill="#FFF" style="fill:#FFF;fill-opacity:1;"/>
<path d="M157.71 21.848L158.842 25.94H167.698C167.27 34.2 164.294 40.156 158.61 44.136L158.334 44.332L160.474 47.1L160.718 46.96C168.51 42.44 172.386 35.76 172.894 25.944H181.654V45.24H186.702V25.944H195.894L197.25 23.32L197.134 23.16C195.69 21.184 194.554 19.988 192.694 18.2L192.442 17.96L189.238 21.852H186.706V10.02H194.422L195.866 7.47199L195.734 7.29999C194.178 5.29999 193.206 4.32799 190.77 2.33199L190.522 2.13199L187.334 5.92799H159.05L160.006 10.02H167.79V21.852H157.71V21.848ZM172.986 21.848V10.016H181.658V21.848H172.986Z" fill="#FFF" style="fill:#FFF;fill-opacity:1;"/>
<path d="M271.154 48.696L270.934 38.092V37.58C284.07 36.304 287.882 35.244 287.882 32.884C287.882 31.16 285.162 29.408 282.498 29.408C281.538 29.408 280.522 29.732 279.394 30.408C277.886 31.344 274.866 32.168 270.862 32.732L270.642 23.2V22.972C277.634 22.244 284.326 21.24 286.63 20.572C288.394 20.008 289.35 19.44 289.35 18.064C289.35 16.316 286.662 14.664 283.818 14.664C282.89 14.664 281.586 14.848 280.722 15.364C279.318 16.168 277.218 16.916 275.222 17.316C274.478 17.52 272.206 17.976 270.566 18.212C270.578 14.252 270.778 11.456 271.134 10.328C271.346 9.76399 271.446 9.15199 271.446 8.45599C271.446 5.88799 268.31 3.952 264.154 3.952C263.122 3.952 261.99 4.09599 260.706 4.39999L260.502 4.452L259.954 7.37999L260.338 7.38799C264.434 7.45599 265.086 7.98799 265.01 15.136V18.884C262.322 19.188 258.958 19.368 255.722 19.368C249.878 19.368 246.414 18.288 243.77 15.644L243.482 15.356L241.51 18.492L241.706 18.676C245.854 22.532 249.946 23.896 257.334 23.896C259.77 23.896 262.242 23.768 265.09 23.488C265.15 26.812 265.254 29.924 265.33 32.22L265.37 33.4C262.586 33.6 259.198 33.748 257.19 33.748C251.726 33.748 248.97 32.88 246.258 30.316L245.95 30.024L244.326 33.084L244.47 33.252C247.45 36.684 251.982 38.276 258.726 38.276C260.95 38.276 263.538 38.2 265.446 38.08L265.886 47.568V47.708C262.69 47.228 260.398 47.024 258.286 47.024C247.886 47.024 241.674 50.74 241.674 56.956C241.674 62.712 248.57 66.888 258.066 66.888C261.678 66.888 265.346 65.94 267.642 64.412C270.154 62.66 271.374 59.912 271.374 56.004C271.374 55.632 271.374 55.172 271.302 54.756V54.112C276.866 56.12 281.602 58.46 285.766 61.264C287.822 62.656 288.054 62.784 289.542 62.784C291.35 62.784 292.434 61.732 292.434 59.968C292.434 55.92 284.882 51.924 271.158 48.708L271.154 48.696ZM256.962 51.252C259.594 51.252 262.646 51.672 266.03 52.5V53.276C266.03 60.452 264.578 61.908 257.402 61.908C250.894 61.908 246.35 59.804 246.35 56.8C246.35 53.484 250.614 51.252 256.958 51.252H256.962Z" fill="#FFF" style="fill:#FFF;fill-opacity:1;"/>
<path d="M345.45 15.1C338.722 15.1 332.31 16.672 319.07 21.572C313.11 23.828 313.03 23.828 311.698 23.828C310.366 23.828 309.258 23.204 308.45 21.92L308.234 21.58L305.654 24.16L305.766 24.372C308.162 28.936 310.266 30.632 313.534 30.632C314.886 30.632 315.382 30.484 316.85 29.636C324.578 25.248 327.882 23.612 332.21 22.028C337.126 20.22 342.034 19.184 345.674 19.184C354.038 19.184 359.878 24.728 359.878 32.656C359.878 44.96 351.678 50.92 329.626 54.644L329.178 54.72L331.19 58.392L331.406 58.364C355.474 55.244 366.686 47.26 366.686 33.244C366.686 22.728 357.754 15.096 345.454 15.096L345.45 15.1Z" fill="#FFF" style="fill:#FFF;fill-opacity:1;"/>
<path d="M401.466 32.492L399.29 29.956L394.142 36.488C394.118 35.948 394.118 35.584 394.118 35.08C394.118 29.932 395.978 22.48 398.178 18.816C399.282 17.052 399.618 16.104 399.618 14.76C399.618 11.916 397.478 9.28398 393.078 6.70798L392.882 6.59198L390.23 8.79998L390.49 9.04798C392.078 10.56 392.666 11.792 392.666 13.588C392.666 14.9 392.494 16.36 391.642 19.604C389.838 27.284 389.29 30.92 389.29 35.156C389.29 40.056 390.314 43.976 392.442 47.172C393.142 48.008 393.666 48.464 394.454 48.464C396.302 48.464 396.478 46.256 396.534 45.524C396.822 41 398.298 37.044 401.322 32.696L401.462 32.492H401.466Z" fill="#FFF" style="fill:#FFF;fill-opacity:1;"/>
<path d="M424.85 10.04C423.782 6.67599 421.802 4.97198 418.966 4.97198C417.098 4.97198 415.534 5.62799 414.046 7.04399L413.882 7.19999L415.246 10.204L415.57 9.94399C416.23 9.41599 416.814 9.20799 417.646 9.20799C418.382 9.20799 418.934 9.57198 419.382 11.384C420.042 14.172 420.626 22.88 420.626 30.02C420.626 49.448 414.45 59.236 398.606 64.936L398.23 65.072L400.186 68.18L400.414 68.116C409.694 65.588 415.314 62.156 419.806 56.264C424.686 49.972 427.062 41.792 427.062 31.264C427.062 23.104 426.11 13.976 424.85 10.036V10.04Z" fill="#FFF" style="fill:#FFF;fill-opacity:1;"/>
</svg>
